Coordinates
version=1
nRows=13
nColumns=40
inDegrees=yes

Units are S.I. units (second, meters, Newtons, ...)
If the header above contains a line with 'inDegrees', this indicates whether rotational values are in degrees (yes) or radians (no).

endheader
time	pelvis_tilt	pelvis_list	pelvis_rotation	pelvis_tx	pelvis_ty	pelvis_tz	hip_flexion_r	hip_adduction_r	hip_rotation_r	knee_angle_r	knee_angle_r_beta	ankle_angle_r	subtalar_angle_r	mtp_angle_r	hip_flexion_l	hip_adduction_l	hip_rotation_l	knee_angle_l	knee_angle_l_beta	ankle_angle_l	subtalar_angle_l	mtp_angle_l	lumbar_extension	lumbar_bending	lumbar_rotation	arm_flex_r	arm_add_r	arm_rot_r	elbow_flex_r	pro_sup_r	wrist_flex_r	wrist_dev_r	arm_flex_l	arm_add_l	arm_rot_l	elbow_flex_l	pro_sup_l	wrist_flex_l	wrist_dev_l
     30.23000000	     -6.19666950	     -0.62312625	      4.59871934	      1.18689980	      0.91239729	     -0.43616922	     -5.97463744	      5.68794653	      4.19999123	     48.38828853	      0.84453495	    -22.46806131	    -12.60545283	      0.00000000	     25.88991807	      5.60546468	      6.96999892	      9.91599799	      0.17306681	      4.51969368	     14.47940425	      0.00000000	     -9.04397220	     -3.36623061	     14.83887217	      0.00000000	    -14.99990020	      0.00000000	     75.00017584	     45.00000026	      0.00000000	      0.00000000	      0.00000000	    -14.99990020	      0.00000000	     75.00017584	     45.00000026	      0.00000000	      0.00000000
     30.24000000	     -4.80870977	     -0.98042742	      5.45879469	      1.18610354	      0.90725620	     -0.43701144	     -5.55756141	      5.45918772	      1.56663860	     53.15271082	      0.92768981	    -22.26182089	    -13.43282949	      0.00000000	     24.34287511	      5.25210908	      6.02958074	     12.25073990	      0.21381575	      1.68866786	     13.22182416	      0.00000000	    -10.61259301	     -2.84191341	     13.59645976	      0.00000000	    -14.99990036	      0.00000000	     75.00017584	     45.00000026	      0.00000000	      0.00000000	      0.00000000	    -14.99990036	      0.00000000	     75.00017584	     45.00000026	      0.00000000	      0.00000000
     30.25000000	     -3.66398262	     -0.84913548	      6.31390312	      1.18437943	      0.90119809	     -0.43809004	     -4.67439949	      4.39291824	     -1.15333599	     58.20795130	      1.01592040	    -21.94603818	    -14.14693833	      0.00000000	     22.92367983	      5.50024111	      6.07637725	     14.35780279	      0.25059093	     -1.11748760	     10.49762169	      0.00000000	    -12.09168952	     -2.92140388	     12.31433979	      0.00000000	    -14.99990089	      0.00000000	     75.00017584	     45.00000026	      0.00000000	      0.00000000	      0.00000000	    -14.99990089	      0.00000000	     75.00017584	     45.00000026	      0.00000000	      0.00000000
     30.26000000	     -2.45902322	      0.08914894	      7.35715245	      1.18174855	      0.89553297	     -0.43958436	     -3.84492261	      2.18600417	     -4.15206629	     63.18434629	      1.10277488	    -21.69701043	    -14.92590994	      0.00000000	     21.77491442	      6.72561203	      5.54308083	     17.80183933	      0.31070071	      1.63794636	     10.14389229	      0.00000000	    -13.93366701	     -3.78021529	     10.59968263	      0.00000000	    -14.99990114	      0.00000000	     75.00017584	     45.00000026	      0.00000000	      0.00000000	      0.00000000	    -14.99990114	      0.00000000	     75.00017584	     45.00000026	      0.00000000	      0.00000000
     30.27000000	     -1.60550822	      1.23811526	      8.52898094	      1.17837733	      0.88958383	     -0.44037318	     -2.60234507	     -0.27253915	     -6.87798335	     68.03864092	      1.18749830	    -21.20668168	    -16.06336282	      0.00000000	     22.09670787	      7.92559252	      3.39893857	     23.88131819	      0.41680763	      5.90061624	     12.07684283	      0.00000000	    -15.60705250	     -4.95122536	      8.44185294	      0.00000000	    -14.99990176	      0.00000000	     75.00017584	     45.00000026	      0.00000000	      0.00000000	      0.00000000	    -14.99990176	      0.00000000	     75.00017584	     45.00000026	      0.00000000	      0.00000000
     30.28000000	     -1.13123157	      2.04003262	      9.81488922	      1.17480011	      0.88318347	     -0.44051617	     -0.88113825	     -2.38825674	     -9.38091359	     72.53198292	      1.26592191	    -20.11880551	    -16.54344898	      0.00000000	     23.06877435	      8.59844932	      2.29960926	     30.19596986	      0.52701909	      8.71856375	     12.56073892	      0.00000000	    -16.89747708	     -5.78672874	      6.10373127	      0.00000000	    -14.99990215	      0.00000000	     75.00017584	     45.00000026	      0.00000000	      0.00000000	      0.00000000	    -14.99990215	      0.00000000	     75.00017584	     45.00000026	      0.00000000	      0.00000000
     30.29000000	     -0.89202768	      2.76349917	     11.14120978	      1.17084370	      0.87729189	     -0.44118193	      1.13673351	     -4.64534829	    -11.60326592	     76.62875660	      1.33742410	    -18.60797341	    -16.72969526	      0.00000000	     23.59964049	      9.23976029	      2.51334494	     35.27183869	      0.61560972	     11.50624270	     13.87932273	      0.00000000	    -17.98788578	     -6.41186188	      3.50392698	      0.00000000	    -14.99990267	      0.00000000	     75.00017584	     45.00000026	      0.00000000	      0.00000000	      0.00000000	    -14.99990267	      0.00000000	     75.00017584	     45.00000026	      0.00000000	      0.00000000
     30.30000000	     -1.15391195	      3.30643843	     12.05249946	      1.16700421	      0.87157309	     -0.44131143	      3.92185729	     -6.69092629	    -12.91169886	     80.21459994	      1.40000888	    -17.14247750	    -16.63732376	      0.00000000	     23.76138372	      9.36053858	      2.33108083	     38.57426944	      0.67324801	     13.85187739	     15.17984739	      0.00000000	    -18.50751729	     -7.00174131	      1.23865229	      0.00000000	    -14.99990319	      0.00000000	     75.00017584	     45.00000026	      0.00000000	      0.00000000	      0.00000000	    -14.99990319	      0.00000000	     75.00017584	     45.00000026	      0.00000000	      0.00000000
     30.31000000	     -1.60142579	      3.86900396	     12.33689605	      1.16300159	      0.86652184	     -0.44057497	      7.25578476	     -8.66229140	    -13.11181746	     83.44073551	      1.45631556	    -15.76225915	    -16.51260677	      0.00000000	     23.19619456	      9.05774321	      1.14613849	     40.31337340	      0.70360110	     16.34414800	     16.83074440	      0.00000000	    -18.84976046	     -7.73132788	     -0.62071210	      0.00000000	    -14.99990352	      0.00000000	     75.00017584	     45.00000026	      0.00000000	      0.00000000	      0.00000000	    -14.99990352	      0.00000000	     75.00017584	     45.00000026	      0.00000000	      0.00000000
     30.32000000	     -1.82952712	      4.31178604	     12.26401303	      1.15942410	      0.86281238	     -0.43952767	     10.49942447	    -10.22475235	    -12.66453428	     85.88200538	      1.49892376	    -14.35682040	    -15.85161914	      0.00000000	     21.81124048	      8.50864980	     -0.04454010	     40.86003961	      0.71314222	     18.25026150	     17.98794302	      0.00000000	    -19.34818102	     -8.29353882	     -2.42666348	      0.00000000	    -14.99990397	      0.00000000	     75.00017584	     45.00000026	      0.00000000	      0.00000000	      0.00000000	    -14.99990397	      0.00000000	     75.00017584	     45.00000026	      0.00000000	      0.00000000
     30.33000000	     -1.90480543	      4.82396340	     11.64069052	      1.15648101	      0.86015821	     -0.43779940	     13.74637708	    -11.46145800	    -11.39816919	     87.63215363	      1.52946961	    -13.11061871	    -15.17729579	      0.00000000	     19.93655938	      7.98644763	     -1.45188812	     40.85613733	      0.71307412	     19.98748940	     18.52511917	      0.00000000	    -19.79487436	     -8.95890083	     -4.08563944	      0.00000000	    -14.99990439	      0.00000000	     75.00017584	     45.00000026	      0.00000000	      0.00000000	      0.00000000	    -14.99990439	      0.00000000	     75.00017584	     45.00000026	      0.00000000	      0.00000000
     30.34000000	     -1.79488433	      5.15156891	     10.83692213	      1.15384103	      0.85951679	     -0.43596139	     16.78822754	    -12.28890129	    -10.10359446	     88.41534281	      1.54313884	    -12.45814710	    -14.66555294	      0.00000000	     17.76597985	      7.35696894	     -2.98450484	     40.61004215	      0.70877894	     22.25032436	     18.85244662	      0.00000000	    -20.24353024	     -9.31796694	     -5.92023157	      0.00000000	    -14.99990459	      0.00000000	     75.00017584	     45.00000026	      0.00000000	      0.00000000	      0.00000000	    -14.99990459	      0.00000000	     75.00017584	     45.00000026	      0.00000000	      0.00000000
     30.35000000	     -1.72919062	      5.00197251	     10.07691326	      1.15152192	      0.86018864	     -0.43433682	     19.75106078	    -12.29400473	     -8.86579131	     88.28691265	      1.54089731	    -11.76254892	    -14.24680889	      0.00000000	     15.50960345	      6.32188487	     -4.15806483	     40.11942056	      0.70021598	     22.06732620	     18.96523982	      0.00000000	    -20.36132013	     -9.00929209	     -7.69467240	      0.00000000	    -14.99990474	      0.00000000	     75.00017584	     45.00000026	      0.00000000	      0.00000000	      0.00000000	    -14.99990474	      0.00000000	     75.00017584	     45.00000026	      0.00000000	      0.00000000
